<svg width="33" height="33" viewBox="0 0 33 33" fill="none" xmlns="http://www.w3.org/2000/svg">
<path d="M16.5713 3.35718C14.0001 3.35718 11.4867 4.11961 9.34888 5.54807C7.21104 6.97653 5.5448 9.00685 4.56086 11.3823C3.57692 13.7577 3.31948 16.3716 3.82109 18.8934C4.32269 21.4151 5.56082 23.7315 7.37891 25.5496C9.19699 27.3676 11.5134 28.6058 14.0351 29.1074C16.5569 29.609 19.1707 29.3516 21.5462 28.3676C23.9216 27.3837 25.9519 25.7174 27.3804 23.5796C28.8089 21.4418 29.5713 18.9283 29.5713 16.3572C29.5677 12.9105 28.1968 9.60599 25.7597 7.16881C23.3225 4.73163 20.018 3.36082 16.5713 3.35718ZM16.5713 27.3572C14.3957 27.3572 12.269 26.712 10.46 25.5033C8.65108 24.2946 7.24118 22.5767 6.40862 20.5667C5.57606 18.5567 5.35822 16.345 5.78266 14.2112C6.20709 12.0774 7.25474 10.1174 8.79312 8.579C10.3315 7.04063 12.2915 5.99298 14.4253 5.56854C16.5591 5.1441 18.7708 5.36194 20.7808 6.1945C22.7908 7.02707 24.5088 8.43696 25.7175 10.2459C26.9262 12.0548 27.5713 14.1816 27.5713 16.3572C27.568 19.2735 26.408 22.0695 24.3458 24.1317C22.2836 26.1939 19.4877 27.3539 16.5713 27.3572ZM10.5713 13.8572C10.5713 13.5605 10.6593 13.2705 10.8241 13.0238C10.9889 12.7771 11.2232 12.5849 11.4973 12.4714C11.7714 12.3578 12.073 12.3281 12.3639 12.386C12.6549 12.4439 12.9222 12.5867 13.132 12.7965C13.3417 13.0063 13.4846 13.2736 13.5425 13.5645C13.6004 13.8555 13.5706 14.1571 13.4571 14.4312C13.3436 14.7053 13.1513 14.9396 12.9046 15.1044C12.658 15.2692 12.368 15.3572 12.0713 15.3572C11.6735 15.3572 11.2919 15.1991 11.0106 14.9178C10.7293 14.6365 10.5713 14.255 10.5713 13.8572ZM23.5713 13.8572C23.5713 14.1224 23.4659 14.3767 23.2784 14.5643C23.0909 14.7518 22.8365 14.8572 22.5713 14.8572H19.5713C19.3061 14.8572 19.0517 14.7518 18.8642 14.5643C18.6767 14.3767 18.5713 14.1224 18.5713 13.8572C18.5713 13.592 18.6767 13.3376 18.8642 13.1501C19.0517 12.9625 19.3061 12.8572 19.5713 12.8572H22.5713C22.8365 12.8572 23.0909 12.9625 23.2784 13.1501C23.4659 13.3376 23.5713 13.592 23.5713 13.8572ZM22.4363 19.8572C21.15 22.0809 19.0125 23.3572 16.5713 23.3572C14.13 23.3572 11.9925 22.0822 10.705 19.8572C10.6394 19.7434 10.5968 19.6178 10.5796 19.4876C10.5625 19.3574 10.5712 19.2251 10.6052 19.0982C10.6392 18.9713 10.6979 18.8524 10.7779 18.7482C10.8578 18.644 10.9575 18.5566 11.0713 18.4909C11.1851 18.4253 11.3106 18.3827 11.4409 18.3655C11.5711 18.3484 11.7034 18.3571 11.8303 18.3911C11.9571 18.4251 12.0761 18.4838 12.1803 18.5637C12.2845 18.6437 12.3719 18.7434 12.4375 18.8572C13.37 20.4709 14.8375 21.3572 16.5713 21.3572C18.305 21.3572 19.7725 20.4697 20.7063 18.8572C20.7688 18.7377 20.8549 18.632 20.9592 18.5467C21.0636 18.4613 21.1842 18.3979 21.3138 18.3603C21.4433 18.3227 21.5791 18.3117 21.713 18.328C21.8468 18.3443 21.9761 18.3874 22.0928 18.4549C22.2096 18.5224 22.3115 18.6128 22.3924 18.7207C22.4733 18.8286 22.5316 18.9518 22.5637 19.0828C22.5958 19.2138 22.601 19.3499 22.5791 19.483C22.5572 19.6161 22.5086 19.7434 22.4363 19.8572Z" fill="black"/>
</svg>
