<svg width="319" height="346" viewBox="0 0 319 346" fill="none" xmlns="http://www.w3.org/2000/svg">
<path d="M305.594 53.6875H239.188V40.4062C239.187 29.839 234.99 19.7046 227.518 12.2325C220.045 4.76031 209.911 0.5625 199.344 0.5625H119.656C109.089 0.5625 98.9546 4.76031 91.4825 12.2325C84.0103 19.7046 79.8125 29.839 79.8125 40.4062V53.6875H13.4062C9.88384 53.6875 6.50571 55.0868 4.01499 57.5775C1.52427 60.0682 0.125 63.4463 0.125 66.9688C0.125 70.4912 1.52427 73.8693 4.01499 76.36C6.50571 78.8507 9.88384 80.25 13.4062 80.25H26.6875V319.312C26.6875 326.357 29.486 333.114 34.4675 338.095C39.4489 343.076 46.2052 345.875 53.25 345.875H265.75C272.795 345.875 279.551 343.076 284.533 338.095C289.514 333.114 292.312 326.357 292.312 319.312V80.25H305.594C309.116 80.25 312.494 78.8507 314.985 76.36C317.476 73.8693 318.875 70.4912 318.875 66.9688C318.875 63.4463 317.476 60.0682 314.985 57.5775C312.494 55.0868 309.116 53.6875 305.594 53.6875ZM106.375 40.4062C106.375 36.8838 107.774 33.5057 110.265 31.015C112.756 28.5243 116.134 27.125 119.656 27.125H199.344C202.866 27.125 206.244 28.5243 208.735 31.015C211.226 33.5057 212.625 36.8838 212.625 40.4062V53.6875H106.375V40.4062ZM265.75 319.312H53.25V80.25H265.75V319.312ZM132.938 146.656V252.906C132.938 256.429 131.538 259.807 129.048 262.298C126.557 264.788 123.179 266.188 119.656 266.188C116.134 266.188 112.756 264.788 110.265 262.298C107.774 259.807 106.375 256.429 106.375 252.906V146.656C106.375 143.134 107.774 139.756 110.265 137.265C112.756 134.774 116.134 133.375 119.656 133.375C123.179 133.375 126.557 134.774 129.048 137.265C131.538 139.756 132.938 143.134 132.938 146.656ZM212.625 146.656V252.906C212.625 256.429 211.226 259.807 208.735 262.298C206.244 264.788 202.866 266.188 199.344 266.188C195.821 266.188 192.443 264.788 189.952 262.298C187.462 259.807 186.062 256.429 186.062 252.906V146.656C186.062 143.134 187.462 139.756 189.952 137.265C192.443 134.774 195.821 133.375 199.344 133.375C202.866 133.375 206.244 134.774 208.735 137.265C211.226 139.756 212.625 143.134 212.625 146.656Z" fill="#171717"/>
</svg>
