<svg width="100" height="100" viewBox="0 0 28 28" fill="none" xmlns="http://www.w3.org/2000/svg">
<path opacity="1" d="M26.7734 7.75002L23.0872 10.8963C22.9988 10.9716 22.9328 11.0697 22.8963 11.1798C22.8597 11.29 22.8539 11.4081 22.8797 11.5213L23.9847 16.2038C24.0121 16.328 24.0025 16.4576 23.957 16.5764C23.9114 16.6952 23.8321 16.7981 23.7287 16.8722C23.6252 16.9463 23.5023 16.9885 23.3752 16.9934C23.2481 16.9984 23.1223 16.9659 23.0134 16.9L18.8359 14.4163C18.7341 14.3561 18.6179 14.3244 18.4997 14.3244C18.3814 14.3244 18.2653 14.3561 18.1634 14.4163L13.9859 16.9C13.877 16.9659 13.7513 16.9984 13.6241 16.9934C13.497 16.9885 13.3741 16.9463 13.2707 16.8722C13.1672 16.7981 13.0879 16.6952 13.0424 16.5764C12.9969 16.4576 12.9872 16.328 13.0147 16.2038L14.1247 11.5275C14.1504 11.4143 14.1446 11.2963 14.1081 11.1861C14.0715 11.0759 14.0055 10.9779 13.9172 10.9025L10.2259 7.75002C10.1292 7.66725 10.0593 7.55751 10.0253 7.43483C9.99121 7.31215 9.99453 7.1821 10.0348 7.06131C10.0751 6.94053 10.1504 6.8345 10.2513 6.75678C10.3521 6.67906 10.4738 6.63318 10.6009 6.62502L15.4609 6.21377C15.5777 6.20294 15.6895 6.16076 15.7843 6.09167C15.8791 6.02258 15.9535 5.92916 15.9997 5.82127L17.8997 1.39252C17.9507 1.2759 18.0347 1.17668 18.1412 1.10701C18.2478 1.03735 18.3723 1.00024 18.4997 1.00024C18.627 1.00024 18.7515 1.03735 18.8581 1.10701C18.9646 1.17668 19.0486 1.2759 19.0997 1.39252L20.9997 5.82127C21.0466 5.92956 21.1221 6.02306 21.2181 6.09175C21.3141 6.16045 21.427 6.20176 21.5447 6.21127L26.4034 6.62502C26.53 6.63408 26.6511 6.6806 26.7513 6.75867C26.8514 6.83674 26.926 6.94283 26.9657 7.06343C27.0054 7.18404 27.0083 7.31372 26.974 7.43598C26.9398 7.55824 26.8699 7.66756 26.7734 7.75002Z" fill="#fbbf24"/>
<path d="M27.9208 6.76245C27.8214 6.45217 27.632 6.17842 27.3768 5.97591C27.1215 5.77339 26.8118 5.65125 26.4871 5.62496L21.8346 5.2312L20.0196 0.999955C19.8915 0.703322 19.6793 0.450674 19.4094 0.273177C19.1394 0.0956806 18.8233 0.00109863 18.5002 0.00109863C18.1771 0.00109863 17.861 0.0956806 17.5911 0.273177C17.3211 0.450674 17.1089 0.703322 16.9808 0.999955L15.1658 5.23246L10.5121 5.62496C10.1889 5.65091 9.88071 5.77199 9.62629 5.97291C9.37188 6.17383 9.18266 6.44559 9.08251 6.75392C8.98237 7.06226 8.97577 7.39334 9.06357 7.70541C9.15136 8.01748 9.32961 8.29657 9.57583 8.50745L13.0958 11.5075L12.0421 15.9737C11.968 16.2868 11.9878 16.6147 12.0989 16.9166C12.2101 17.2185 12.4077 17.4809 12.6671 17.6712C12.9295 17.8639 13.243 17.975 13.5683 17.9906C13.8935 18.0062 14.2162 17.9255 14.4958 17.7587L18.4958 15.3837L22.4958 17.7587C22.7755 17.9255 23.0981 18.0062 23.4234 17.9906C23.7487 17.975 24.0621 17.8639 24.3246 17.6712C24.5841 17.481 24.7818 17.2186 24.893 16.9167C25.0041 16.6148 25.0238 16.2868 24.9496 15.9737L23.8958 11.5075L27.4146 8.50745C27.6622 8.29938 27.8425 8.02247 27.9327 7.71182C28.0228 7.40117 28.0187 7.07076 27.9208 6.76245ZM22.4383 10.1375C22.208 10.3326 22.0363 10.5878 21.9423 10.8747C21.8483 11.1615 21.8357 11.4688 21.9058 11.7625L22.8196 15.6375L19.3471 13.5737C19.0908 13.4209 18.798 13.3402 18.4996 13.3402C18.2012 13.3402 17.9084 13.4209 17.6521 13.5737L14.1796 15.625L15.0933 11.75C15.1645 11.4565 15.1525 11.149 15.0587 10.8619C14.9648 10.5749 14.7929 10.3197 14.5621 10.125L11.5296 7.54745L15.5408 7.20746C15.8385 7.18248 16.1238 7.07689 16.3661 6.90204C16.6083 6.72718 16.7984 6.48966 16.9158 6.21496L18.4996 2.52996L20.0796 6.21496C20.1973 6.4895 20.3874 6.72688 20.6296 6.9017C20.8718 7.07652 21.1569 7.18221 21.4546 7.20746L25.4658 7.54745L22.4383 10.1375ZM8.70708 13.7075L1.70708 20.7075C1.51944 20.8951 1.26494 21.0005 0.99958 21.0005C0.734216 21.0005 0.47972 20.8951 0.29208 20.7075C0.104439 20.5198 -0.000976562 20.2653 -0.000976562 20C-0.000976562 19.7346 0.104439 19.4801 0.29208 19.2925L7.29208 12.2925C7.47972 12.1048 7.73422 11.9994 7.99958 11.9994C8.26494 11.9994 8.51944 12.1048 8.70708 12.2925C8.89472 12.4801 9.00014 12.7346 9.00014 13C9.00014 13.2653 8.89472 13.5198 8.70708 13.7075ZM10.7071 20.7075L3.70708 27.7075C3.61417 27.8004 3.50387 27.8741 3.38248 27.9243C3.26108 27.9746 3.13097 28.0005 2.99958 28.0005C2.86818 28.0005 2.73808 27.9746 2.61668 27.9243C2.49529 27.8741 2.38499 27.8004 2.29208 27.7075C2.19917 27.6145 2.12547 27.5042 2.07519 27.3829C2.0249 27.2615 1.99902 27.1313 1.99902 27C1.99902 26.8686 2.0249 26.7385 2.07519 26.6171C2.12547 26.4957 2.19917 26.3854 2.29208 26.2925L9.29208 19.2925C9.47972 19.1048 9.73422 18.9994 9.99958 18.9994C10.2649 18.9994 10.5194 19.1048 10.7071 19.2925C10.8947 19.4801 11.0001 19.7346 11.0001 20C11.0001 20.2653 10.8947 20.5198 10.7071 20.7075ZM19.7071 19.2925C19.8001 19.3853 19.8738 19.4956 19.9241 19.617C19.9745 19.7384 20.0004 19.8685 20.0004 20C20.0004 20.1314 19.9745 20.2615 19.9241 20.3829C19.8738 20.5043 19.8001 20.6146 19.7071 20.7075L12.7071 27.7075C12.6142 27.8004 12.5039 27.8741 12.3825 27.9243C12.2611 27.9746 12.131 28.0005 11.9996 28.0005C11.8682 28.0005 11.7381 27.9746 11.6167 27.9243C11.4953 27.8741 11.385 27.8004 11.2921 27.7075C11.1992 27.6145 11.1255 27.5042 11.0752 27.3829C11.0249 27.2615 10.999 27.1313 10.999 27C10.999 26.8686 11.0249 26.7385 11.0752 26.6171C11.1255 26.4957 11.1992 26.3854 11.2921 26.2925L18.2921 19.2925C18.385 19.1995 18.4952 19.1257 18.6166 19.0754C18.738 19.0251 18.8682 18.9992 18.9996 18.9992C19.131 18.9992 19.2611 19.0251 19.3825 19.0754C19.5039 19.1257 19.6142 19.1995 19.7071 19.2925Z" fill="#171717"/>
</svg>
