<svg width="35" height="33" viewBox="0 0 35 33" fill="none" xmlns="http://www.w3.org/2000/svg">
<path d="M34.9688 11.125C34.9695 11.0001 34.9525 10.8757 34.9184 10.7555L32.508 2.32344C32.346 1.76396 32.0074 1.27189 31.5427 0.92072C31.078 0.569548 30.5121 0.378112 29.9297 0.375H5.07031C4.48786 0.378112 3.92203 0.569548 3.45734 0.92072C2.99264 1.27189 2.654 1.76396 2.49199 2.32344L0.0833213 10.7555C0.048622 10.8756 0.0310915 11 0.0312511 11.125V13.8125C0.0312511 14.8556 0.274101 15.8843 0.740568 16.8172C1.20704 17.7502 1.88431 18.5617 2.71875 19.1875V29.9375C2.71875 30.6503 3.0019 31.3338 3.5059 31.8378C4.00991 32.3419 4.69348 32.625 5.40625 32.625H29.5938C30.3065 32.625 30.9901 32.3419 31.4941 31.8378C31.9981 31.3338 32.2812 30.6503 32.2812 29.9375V19.1875C33.1157 18.5617 33.793 17.7502 34.2594 16.8172C34.7259 15.8843 34.9688 14.8556 34.9688 13.8125V11.125ZM5.07031 3.0625H29.9297L31.8479 9.78125H3.15715L5.07031 3.0625ZM13.4688 12.4688H21.5312V13.8125C21.5312 14.8817 21.1065 15.907 20.3505 16.663C19.5945 17.419 18.5692 17.8438 17.5 17.8438C16.4308 17.8438 15.4055 17.419 14.6495 16.663C13.8935 15.907 13.4688 14.8817 13.4688 13.8125V12.4688ZM10.7813 12.4688V13.8125C10.7813 14.8817 10.3565 15.907 9.60053 16.663C8.84452 17.419 7.81916 17.8438 6.75 17.8438C5.68085 17.8438 4.65548 17.419 3.89948 16.663C3.14347 15.907 2.71875 14.8817 2.71875 13.8125V12.4688H10.7813ZM29.5938 29.9375H5.40625V20.3969C5.84861 20.486 6.29874 20.5311 6.75 20.5312C7.79305 20.5313 8.82178 20.2884 9.75472 19.8219C10.6877 19.3555 11.4992 18.6782 12.125 17.8438C12.7508 18.6782 13.5624 19.3555 14.4953 19.8219C15.4282 20.2884 16.4569 20.5312 17.5 20.5312C18.5431 20.5312 19.5718 20.2884 20.5047 19.8219C21.4377 19.3555 22.2492 18.6782 22.875 17.8438C23.5008 18.6782 24.3123 19.3555 25.2453 19.8219C26.1782 20.2884 27.2069 20.5312 28.25 20.5312C28.7013 20.5311 29.1514 20.486 29.5938 20.3969V29.9375ZM28.25 17.8438C27.1808 17.8437 26.1555 17.419 25.3995 16.663C24.6435 15.907 24.2188 14.8817 24.2188 13.8125V12.4688H32.2812V13.8125C32.2812 14.8817 31.8565 15.907 31.1005 16.663C30.3445 17.419 29.3192 17.8438 28.25 17.8438Z" fill="#0ea5e9"/>
</svg>
